# xmcd CD database file
#
# Track frame offsets:
#	150
#	19110
#	36021
#	53718
#	74401
#	97179
#	120492
#	137966
#	157659
#	180361
#	196854
#	232559
#	261906
#	274170
#	290266
#	313301
#
# Disc length: 4495 seconds
#
# Revision: 0
# Processed by: cddbd v1.5.2PL0 Copyright (c) Steve Scherf et al.
# Submitted via: CDex 1.70beta2
#
DISCID=d9118d10
DTITLE=Sonny Stitt and Hank Jones - Cherokee - Legendary Studio Sessions
DYEAR=2016
DGENRE=Jazz
TTITLE0=Cherokee
TTITLE1=Engos, the Bloos
TTITLE2=Body and Soul
TTITLE3=I Don't Know What Time It Was
TTITLE4=The Best Things in Life Are Free
TTITLE5=People Will Say We're in Love
TTITLE6=Bloosey
TTITLE7=Bird's Eye
TTITLE8=It Might As Well Be Spring
TTITLE9=Engos, the Bloos (alt, tk)
TTITLE10=People Will Say We're in Love (alt, tk)
TTITLE11=It Might As Well Be Spring (alt, tk)
TTITLE12=No Cal
TTITLE13=Corn Flakes
TTITLE14=Eye Ball
TTITLE15=Saginaw
EXTD=YEAR: 2016
EXTT0=
EXTT1=
EXTT2=
EXTT3=
EXTT4=
EXTT5=
EXTT6=
EXTT7=
EXTT8=
EXTT9=
EXTT10=
EXTT11=
EXTT12=
EXTT13=
EXTT14=
EXTT15=
PLAYORDER=
